<svg width="8" height="8" viewBox="0 0 8 8" fill="none" xmlns="http://www.w3.org/2000/svg">
<g clip-path="url(#clip0_1_8)">
<path d="M2.40201 3.64076C2.53226 3.59451 2.71901 3.55926 2.96576 3.58251C2.98211 3.58406 2.9986 3.58236 3.0143 3.57753C3.02999 3.5727 3.04458 3.56483 3.05724 3.55436C3.06989 3.54389 3.08035 3.53103 3.08804 3.51651C3.09572 3.502 3.10047 3.48611 3.10201 3.46976C3.10355 3.45341 3.10186 3.43692 3.09703 3.42122C3.0922 3.40553 3.08432 3.39094 3.07385 3.37829C3.06338 3.36563 3.05052 3.35517 3.03601 3.34749C3.02149 3.3398 3.00561 3.33506 2.98926 3.33351C2.70601 3.30701 2.48276 3.34676 2.31801 3.40526C2.30255 3.41078 2.28832 3.41929 2.27615 3.4303C2.26397 3.44131 2.25408 3.45461 2.24705 3.46945C2.23284 3.49941 2.23112 3.53378 2.24226 3.56501C2.2534 3.59624 2.27649 3.62177 2.30645 3.63597C2.3364 3.65018 2.37078 3.6519 2.40201 3.64076ZM5.54451 3.40526C5.37951 3.34676 5.15651 3.30701 4.87326 3.33351C4.85691 3.33506 4.84102 3.3398 4.82651 3.34749C4.81199 3.35517 4.79914 3.36563 4.78867 3.37829C4.7782 3.39094 4.77032 3.40553 4.76549 3.42122C4.76066 3.43692 4.75897 3.45341 4.76051 3.46976C4.76205 3.48611 4.7668 3.502 4.77448 3.51651C4.78216 3.53103 4.79263 3.54389 4.80528 3.55436C4.81793 3.56483 4.83252 3.5727 4.84822 3.57753C4.86392 3.58236 4.88041 3.58406 4.89676 3.58251C5.14351 3.55926 5.33026 3.59451 5.46051 3.64076C5.49174 3.6519 5.52611 3.65018 5.55607 3.63597C5.58603 3.62177 5.60912 3.59624 5.62026 3.56501C5.6314 3.53378 5.62967 3.49941 5.61547 3.46945C5.60126 3.43949 5.57574 3.4164 5.54451 3.40526ZM2.80001 3.88251C2.43751 3.88251 2.13251 4.13251 2.04751 4.46751C2.02251 4.56251 2.09751 4.65501 2.19751 4.65501H2.43701C2.41728 4.58158 2.41469 4.50459 2.42944 4.42999C2.44419 4.3554 2.47589 4.28519 2.52208 4.22479C2.56828 4.16439 2.62773 4.11541 2.69586 4.08164C2.76399 4.04787 2.83897 4.03021 2.91501 4.03001C2.99107 4.03017 3.06608 4.0478 3.13424 4.08156C3.2024 4.11531 3.26189 4.16429 3.30811 4.22469C3.35433 4.2851 3.38605 4.35532 3.40081 4.42993C3.41558 4.50455 3.41299 4.58156 3.39326 4.65501H3.43251C3.51251 4.65501 3.57501 4.58251 3.56001 4.50501C3.52508 4.32926 3.43019 4.1711 3.29157 4.05756C3.15295 3.94402 2.97919 3.88214 2.80001 3.88251ZM5.20501 3.88251C5.56751 3.88251 5.87251 4.13251 5.95751 4.46751C5.98251 4.56251 5.90751 4.65501 5.80751 4.65501H5.56801C5.58774 4.58158 5.59033 4.50459 5.57557 4.42999C5.56082 4.3554 5.52913 4.28519 5.48293 4.22479C5.43674 4.16439 5.37728 4.11541 5.30915 4.08164C5.24103 4.04787 5.16605 4.03021 5.09001 4.03001C5.01395 4.03017 4.93894 4.0478 4.87078 4.08156C4.80262 4.11531 4.74313 4.16429 4.69691 4.22469C4.65069 4.2851 4.61897 4.35532 4.6042 4.42993C4.58944 4.50455 4.59203 4.58156 4.61176 4.65501H4.57251C4.49251 4.65501 4.43001 4.58251 4.44501 4.50501C4.47994 4.32926 4.57483 4.1711 4.71345 4.05756C4.85207 3.94402 5.02582 3.88214 5.20501 3.88251Z" fill="white"/>
<path d="M4.85723 4.36475C4.82472 4.41185 4.80736 4.46776 4.80748 4.525C4.80748 4.5725 4.81998 4.6175 4.83998 4.6575H5.33998C5.36717 4.60678 5.3782 4.54896 5.3716 4.4918C5.365 4.43463 5.34109 4.38085 5.30307 4.33766C5.26504 4.29447 5.21472 4.26393 5.15886 4.25014C5.10299 4.23635 5.04424 4.23996 4.99048 4.2605C5.00116 4.26859 5.00984 4.27902 5.01585 4.291C5.02186 4.30297 5.02504 4.31617 5.02514 4.32956C5.02524 4.34296 5.02227 4.3562 5.01645 4.36827C5.01063 4.38033 5.00211 4.3909 4.99156 4.39916C4.98101 4.40741 4.9687 4.41313 4.95559 4.41588C4.94248 4.41863 4.92891 4.41833 4.91593 4.415C4.90295 4.41168 4.89091 4.40542 4.88073 4.39671C4.87056 4.38799 4.86252 4.37706 4.85723 4.36475ZM3.19749 4.525C3.1976 4.4782 3.18608 4.43211 3.16396 4.39087C3.14184 4.34963 3.10981 4.31454 3.07076 4.28876C3.03171 4.26297 2.98686 4.2473 2.94025 4.24315C2.89364 4.23901 2.84673 4.24651 2.80374 4.265C2.81703 4.27679 2.8264 4.29237 2.8306 4.30963C2.8348 4.3269 2.83362 4.34504 2.82723 4.36162C2.82085 4.3782 2.80955 4.39244 2.79485 4.40242C2.78015 4.41241 2.76275 4.41767 2.74499 4.4175C2.73076 4.41752 2.71675 4.41406 2.70416 4.40744C2.69157 4.40082 2.68078 4.39123 2.67274 4.3795C2.64758 4.42123 2.63364 4.46877 2.63228 4.51748C2.63092 4.56619 2.64219 4.61443 2.66499 4.6575H3.16499C3.18499 4.6175 3.19749 4.5725 3.19749 4.525ZM3.99823 5.5C4.16823 5.5 4.31573 5.41375 4.40573 5.28175C4.48573 5.1625 4.40073 5 4.25823 5H3.74073C3.59823 5 3.51323 5.1625 3.59323 5.28175C3.68073 5.41375 3.83073 5.5 3.99823 5.5ZM4.00048 5.7935C3.73801 5.79447 3.47924 5.73158 3.24649 5.61025C3.23034 5.60139 3.21168 5.59823 3.19352 5.60126C3.17536 5.6043 3.15875 5.61336 3.14636 5.62699C3.13398 5.64061 3.12654 5.65801 3.12525 5.67638C3.12395 5.69475 3.12888 5.71302 3.13924 5.72825C3.23184 5.87268 3.35922 5.99155 3.50969 6.07397C3.66016 6.1564 3.82892 6.19973 4.00048 6.2C4.17205 6.19973 4.34081 6.1564 4.49128 6.07397C4.64175 5.99155 4.76913 5.87268 4.86173 5.72825C4.90673 5.658 4.82923 5.57275 4.75423 5.61025C4.52199 5.73268 4.26302 5.79564 4.00048 5.7935Z" fill="white"/>
<path d="M6.27674 1.1815C6.33824 1.319 6.44874 1.4265 6.58624 1.4815C6.77825 1.56002 6.94176 1.69523 7.05494 1.86907C7.16813 2.04292 7.22562 2.24714 7.21974 2.4545C7.21463 2.69752 7.12317 2.93077 6.96174 3.1125C6.8801 3.2044 6.82254 3.31513 6.79424 3.43475C7.00984 3.51042 7.1953 3.65355 7.32314 3.84293C7.45097 4.03231 7.51437 4.25784 7.50394 4.48609C7.4935 4.71433 7.40978 4.93314 7.26519 5.11005C7.1206 5.28697 6.92284 5.41258 6.70124 5.46825C6.46625 6.845 5.33974 7.75 4.00124 7.75C2.66249 7.75 1.53625 6.8445 1.30125 5.4675C1.08057 5.41154 0.883697 5.28618 0.739626 5.1099C0.595554 4.93363 0.511899 4.71574 0.500979 4.48834C0.49006 4.26094 0.552454 4.03604 0.678973 3.84677C0.805491 3.6575 0.989446 3.51386 1.20375 3.437L1.18925 3.0075C1.14525 1.9235 1.901 0.998003 2.92099 0.792503C3.11591 0.612 3.36925 0.507645 3.63474 0.498503C3.87299 0.491003 4.09374 0.561003 4.27799 0.683503C4.38849 0.758503 4.53349 0.758503 4.64399 0.683503C4.82799 0.561003 5.0515 0.491003 5.28974 0.498503C5.73175 0.513503 6.10975 0.791253 6.27674 1.1815ZM1.69 3.01825L1.7105 3.62275C1.71267 3.68513 1.69142 3.74607 1.65094 3.79358C1.61046 3.84109 1.55368 3.87174 1.49175 3.8795C1.35203 3.89701 1.22395 3.96629 1.13284 4.07365C1.04172 4.18101 0.994179 4.31863 0.999612 4.45934C1.00505 4.60005 1.06306 4.7336 1.16218 4.83361C1.26131 4.93362 1.39434 4.99282 1.535 4.9995C1.59457 5.00232 1.65118 5.02635 1.69459 5.06724C1.73801 5.10813 1.76537 5.1632 1.77175 5.2225C1.903 6.448 2.85249 7.25 4.00124 7.25C5.14999 7.25 6.09949 6.448 6.23074 5.2225C6.23714 5.16308 6.26461 5.10791 6.30818 5.06701C6.35175 5.0261 6.40854 5.00215 6.46824 4.9995C6.60972 4.99314 6.7436 4.93364 6.84312 4.83289C6.94265 4.73214 7.00052 4.59755 7.00516 4.456C7.0098 4.31446 6.96087 4.17637 6.86816 4.06932C6.77544 3.96226 6.64575 3.89412 6.50499 3.8785C6.4418 3.87158 6.38362 3.84084 6.34229 3.79254C6.30095 3.74424 6.27957 3.68201 6.28249 3.6185L6.30574 3.108C6.21281 3.03914 6.10016 3.00205 5.98449 3.00225H4.71499C4.45668 3.00176 4.20206 2.9409 3.97144 2.82453C3.74083 2.70816 3.5406 2.5395 3.38674 2.332C3.38023 2.3225 3.37073 2.31546 3.35975 2.312H3.32774C3.31615 2.31488 3.3059 2.32168 3.29875 2.33125C3.29159 2.34082 3.28797 2.35257 3.2885 2.3645V2.797C3.28876 2.85087 3.26774 2.90267 3.23 2.94111C3.19226 2.97955 3.14086 3.00153 3.08699 3.00225C2.65499 3.00225 2.28675 2.72725 2.1345 2.342C2.13073 2.33137 2.12303 2.32259 2.11298 2.31747C2.10294 2.31236 2.09131 2.31129 2.08049 2.3145C2.07163 2.31653 2.06358 2.3212 2.05743 2.3279C2.05127 2.33459 2.04728 2.343 2.046 2.352C2.00675 2.5845 1.8985 2.7995 1.739 2.96475C1.722 2.98225 1.7055 3.00025 1.69 3.01825Z" fill="white"/>
</g>
<defs>
<clipPath id="clip0_1_8">
<rect width="8" height="8" fill="white"/>
</clipPath>
</defs>
</svg>
